<mxfile host="65bd71144e">
    <diagram id="nqKw0y5thN22L9Wjb64t" name="ページ1">
        <mxGraphModel dx="1158" dy="785" grid="1" gridSize="10" guides="1" tooltips="1" connect="1" arrows="1" fold="1" page="1" pageScale="1" pageWidth="827" pageHeight="1169" math="0" shadow="0">
            <root>
                <mxCell id="0"/>
                <mxCell id="1" parent="0"/>
                <mxCell id="14" value="" style="rounded=1;whiteSpace=wrap;html=1;" vertex="1" parent="1">
                    <mxGeometry x="140" y="50" width="560" height="210" as="geometry"/>
                </mxCell>
                <mxCell id="5" value="" style="dashed=0;outlineConnect=0;html=1;align=center;labelPosition=center;verticalLabelPosition=bottom;verticalAlign=top;shape=mxgraph.weblogos.github" vertex="1" parent="1">
                    <mxGeometry x="20" y="117.5" width="75" height="75" as="geometry"/>
                </mxCell>
                <mxCell id="7" value="Supabase" style="shape=datastore;whiteSpace=wrap;html=1;fontSize=19;" vertex="1" parent="1">
                    <mxGeometry x="450" y="520" width="120" height="90" as="geometry"/>
                </mxCell>
                <mxCell id="13" value="" style="endArrow=classic;html=1;entryX=0;entryY=0.5;entryDx=0;entryDy=0;" edge="1" parent="1" source="5" target="14">
                    <mxGeometry width="50" height="50" relative="1" as="geometry">
                        <mxPoint x="190" y="230" as="sourcePoint"/>
                        <mxPoint x="140" y="580" as="targetPoint"/>
                    </mxGeometry>
                </mxCell>
                <mxCell id="15" value="Vercel" style="text;html=1;strokeColor=none;fillColor=none;align=center;verticalAlign=middle;whiteSpace=wrap;rounded=0;fontSize=27;" vertex="1" parent="1">
                    <mxGeometry x="160" y="10" width="90" height="40" as="geometry"/>
                </mxCell>
                <mxCell id="23" style="edgeStyle=none;html=1;entryX=0.5;entryY=0;entryDx=0;entryDy=0;fontSize=27;exitX=0.5;exitY=1;exitDx=0;exitDy=0;" edge="1" parent="1" source="43" target="22">
                    <mxGeometry relative="1" as="geometry"/>
                </mxCell>
                <mxCell id="27" value="決済" style="edgeLabel;html=1;align=center;verticalAlign=middle;resizable=0;points=[];fontSize=20;" vertex="1" connectable="0" parent="23">
                    <mxGeometry x="0.0963" y="3" relative="1" as="geometry">
                        <mxPoint x="12" y="27" as="offset"/>
                    </mxGeometry>
                </mxCell>
                <mxCell id="16" value="" style="rounded=1;whiteSpace=wrap;html=1;" vertex="1" parent="1">
                    <mxGeometry x="180" y="80" width="230" height="150" as="geometry"/>
                </mxCell>
                <mxCell id="25" style="edgeStyle=none;html=1;entryX=0.5;entryY=0;entryDx=0;entryDy=0;fontSize=27;exitX=0.5;exitY=1;exitDx=0;exitDy=0;" edge="1" parent="1" source="43" target="49">
                    <mxGeometry relative="1" as="geometry"/>
                </mxCell>
                <mxCell id="26" value="メディア保存・参照" style="edgeLabel;html=1;align=center;verticalAlign=middle;resizable=0;points=[];fontSize=20;" vertex="1" connectable="0" parent="25">
                    <mxGeometry x="0.0435" y="2" relative="1" as="geometry">
                        <mxPoint x="-46" y="37" as="offset"/>
                    </mxGeometry>
                </mxCell>
                <mxCell id="22" value="Stripe" style="rounded=1;whiteSpace=wrap;html=1;fontSize=19;" vertex="1" parent="1">
                    <mxGeometry x="650" y="510" width="120" height="60" as="geometry"/>
                </mxCell>
                <mxCell id="31" value="frontend" style="text;html=1;strokeColor=none;fillColor=none;align=center;verticalAlign=middle;whiteSpace=wrap;rounded=0;fontSize=20;" vertex="1" parent="1">
                    <mxGeometry x="200" y="50" width="80" height="30" as="geometry"/>
                </mxCell>
                <mxCell id="32" value="NextJS(TypeScript)" style="rounded=1;whiteSpace=wrap;html=1;" vertex="1" parent="1">
                    <mxGeometry x="230" y="100" width="120" height="35" as="geometry"/>
                </mxCell>
                <mxCell id="33" value="TailwindCSS" style="rounded=1;whiteSpace=wrap;html=1;" vertex="1" parent="1">
                    <mxGeometry x="239" y="150" width="102" height="35" as="geometry"/>
                </mxCell>
                <mxCell id="36" value="NextAuth" style="rounded=1;whiteSpace=wrap;html=1;" vertex="1" parent="1">
                    <mxGeometry x="239" y="192.5" width="102" height="35" as="geometry"/>
                </mxCell>
                <mxCell id="19" style="edgeStyle=none;html=1;entryX=0.5;entryY=0;entryDx=0;entryDy=0;fontSize=27;exitX=0.5;exitY=1;exitDx=0;exitDy=0;" edge="1" parent="1" source="43" target="7">
                    <mxGeometry relative="1" as="geometry">
                        <mxPoint x="447" y="210" as="sourcePoint"/>
                    </mxGeometry>
                </mxCell>
                <mxCell id="28" value="データ保存•参照" style="edgeLabel;html=1;align=center;verticalAlign=middle;resizable=0;points=[];fontSize=20;" vertex="1" connectable="0" parent="19">
                    <mxGeometry x="0.2457" y="1" relative="1" as="geometry">
                        <mxPoint as="offset"/>
                    </mxGeometry>
                </mxCell>
                <mxCell id="20" style="edgeStyle=none;html=1;entryX=0.5;entryY=0;entryDx=0;entryDy=0;fontSize=27;exitX=0.5;exitY=1;exitDx=0;exitDy=0;" edge="1" parent="1" source="36" target="53">
                    <mxGeometry relative="1" as="geometry">
                        <mxPoint x="80" y="420" as="targetPoint"/>
                    </mxGeometry>
                </mxCell>
                <mxCell id="29" value="Google認証" style="edgeLabel;html=1;align=center;verticalAlign=middle;resizable=0;points=[];fontSize=20;" vertex="1" connectable="0" parent="20">
                    <mxGeometry x="0.4431" y="2" relative="1" as="geometry">
                        <mxPoint x="-3" y="-3" as="offset"/>
                    </mxGeometry>
                </mxCell>
                <mxCell id="40" value="backend" style="text;html=1;strokeColor=none;fillColor=none;align=center;verticalAlign=middle;whiteSpace=wrap;rounded=0;fontSize=20;" vertex="1" parent="1">
                    <mxGeometry x="450" y="50" width="80" height="30" as="geometry"/>
                </mxCell>
                <mxCell id="43" value="" style="rounded=1;whiteSpace=wrap;html=1;" vertex="1" parent="1">
                    <mxGeometry x="430" y="80" width="230" height="150" as="geometry"/>
                </mxCell>
                <mxCell id="42" value="NextJS(TypeScript)" style="rounded=1;whiteSpace=wrap;html=1;" vertex="1" parent="1">
                    <mxGeometry x="481" y="90" width="120" height="35" as="geometry"/>
                </mxCell>
                <mxCell id="37" value="TRPC" style="rounded=1;whiteSpace=wrap;html=1;" vertex="1" parent="1">
                    <mxGeometry x="490" y="137.5" width="102" height="35" as="geometry"/>
                </mxCell>
                <mxCell id="35" value="Prisma" style="rounded=1;whiteSpace=wrap;html=1;" vertex="1" parent="1">
                    <mxGeometry x="490" y="185" width="102" height="35" as="geometry"/>
                </mxCell>
                <mxCell id="49" value="Cloudinary" style="shape=datastore;whiteSpace=wrap;html=1;fontSize=19;" vertex="1" parent="1">
                    <mxGeometry x="200" y="470" width="120" height="90" as="geometry"/>
                </mxCell>
                <mxCell id="56" value="" style="group" vertex="1" connectable="0" parent="1">
                    <mxGeometry x="20" y="460" width="110" height="125" as="geometry"/>
                </mxCell>
                <mxCell id="53" value="" style="shape=actor;whiteSpace=wrap;html=1;fontSize=19;" vertex="1" parent="56">
                    <mxGeometry x="22" width="70" height="85" as="geometry"/>
                </mxCell>
                <mxCell id="54" value="GoogleAuth" style="text;html=1;strokeColor=none;fillColor=none;align=center;verticalAlign=middle;whiteSpace=wrap;rounded=0;fontSize=20;" vertex="1" parent="56">
                    <mxGeometry y="95" width="110" height="30" as="geometry"/>
                </mxCell>
            </root>
        </mxGraphModel>
    </diagram>
</mxfile>